<svg width="260" height="44" viewBox="0 0 260 44" fill="none" xmlns="http://www.w3.org/2000/svg">
<g clip-path="url(#clip0_577_4464)">
<path d="M77.471 0H12.3493C5.52895 0 0 5.73029 0 12.799V31.201C0 38.2697 5.52895 44 12.3493 44H77.471C84.2914 44 89.8203 38.2697 89.8203 31.201V12.799C89.8203 5.73029 84.2914 0 77.471 0Z" fill="#FFEB39"/>
<path d="M11.8827 26.0098H13.5636C14.2702 25.448 14.8397 24.7299 15.2582 23.8553C15.6767 22.9807 15.9717 21.8999 16.1364 20.5986L17.2478 11.1914H29.7823V26.0027H32.2796V33.2838H28.9384V29.437H15.217V33.2838H11.8759V26.0027L11.8827 26.0098ZM25.6796 26.0098V14.6329H20.9045L20.0401 21.2457C19.7931 23.1442 19.0659 24.6445 17.8652 25.7538V26.0098H25.6796Z" fill="black"/>
<path d="M38.2072 28.7401C36.7322 27.9437 35.5865 26.8202 34.77 25.3697C33.9536 23.9191 33.5488 22.2339 33.5488 20.3212C33.5488 18.4084 33.9605 16.7517 34.7838 15.3011C35.607 13.8506 36.7596 12.72 38.2347 11.9165C39.7097 11.113 41.3975 10.7148 43.291 10.7148C45.1846 10.7148 46.8723 11.1201 48.3474 11.9165C49.8224 12.72 50.975 13.8506 51.7983 15.3011C52.6216 16.7517 53.0332 18.4298 53.0332 20.3212C53.0332 22.2126 52.6284 23.9191 51.812 25.3697C50.9956 26.8202 49.8499 27.9437 48.3748 28.7401C46.8998 29.5364 45.2052 29.9346 43.291 29.9346C41.3769 29.9346 39.6823 29.5364 38.2072 28.7401ZM46.2068 25.6256C47.0644 25.1137 47.7299 24.3955 48.2101 23.4711C48.6904 22.5468 48.9305 21.5015 48.9305 20.3212C48.9305 19.1408 48.6904 18.0956 48.2101 17.1783C47.7299 16.2611 47.0644 15.55 46.2068 15.038C45.3492 14.5261 44.375 14.2701 43.291 14.2701C42.207 14.2701 41.2328 14.5261 40.3752 15.038C39.5176 15.55 38.8521 16.2611 38.3719 17.1783C37.8917 18.0956 37.6584 19.1408 37.6584 20.3212C37.6584 21.5015 37.8985 22.5539 38.3719 23.4711C38.8521 24.3955 39.5176 25.1137 40.3752 25.6256C41.2328 26.1376 42.207 26.3936 43.291 26.3936C44.375 26.3936 45.3492 26.1376 46.2068 25.6256Z" fill="black"/>
<path d="M55.7501 11.1992H61.4376L66.0617 24.1688H66.3087L70.9053 11.1992H76.6409V29.4449H72.6342V16.8876H72.3873L67.8592 29.4449H64.518L59.99 16.8876H59.743V29.4449H55.7363V11.1992H55.7501Z" fill="black"/>
<path d="M103.336 28.8612C101.957 28.0293 100.887 26.8845 100.111 25.4268C99.3361 23.9692 98.9519 22.3124 98.9519 20.4708C98.9519 18.6292 99.3361 16.9653 100.105 15.4863C100.873 14.0073 101.943 12.8483 103.322 12.0164C104.701 11.1773 106.252 10.7578 107.981 10.7578C109.264 10.7578 110.492 11.0422 111.651 11.604C112.811 12.1657 113.798 12.9479 114.608 13.9504C115.418 14.953 115.966 16.0765 116.268 17.3208L114.066 17.6266C113.853 16.7022 113.442 15.8774 112.845 15.1379C112.241 14.4055 111.521 13.8296 110.67 13.4243C109.819 13.0119 108.927 12.8056 107.987 12.8056C106.684 12.8056 105.518 13.1327 104.488 13.794C103.459 14.4482 102.657 15.3583 102.08 16.5102C101.504 17.6621 101.216 18.9634 101.216 20.421C101.216 21.8787 101.511 23.1799 102.094 24.3389C102.677 25.498 103.487 26.4081 104.516 27.0694C105.545 27.7307 106.704 28.0577 107.987 28.0577C108.914 28.0577 109.792 27.8587 110.636 27.4534C111.48 27.0552 112.2 26.4934 112.811 25.7895C113.421 25.0784 113.846 24.2892 114.093 23.4217L116.248 23.8554C115.966 25.0358 115.424 26.1024 114.615 27.0623C113.805 28.0222 112.824 28.7688 111.658 29.3021C110.492 29.8354 109.27 30.1127 107.987 30.1127C106.272 30.1127 104.729 29.7003 103.35 28.8683L103.336 28.8612Z" fill="black"/>
<path d="M122.587 18.4452H118.059V16.5254H129.139V18.4452H124.638V29.4666H122.587V18.4452Z" fill="black"/>
<path d="M141.694 16.9076C142.675 17.5049 143.45 18.3369 144.02 19.3963C144.589 20.4558 144.871 21.6504 144.871 22.9872C144.871 24.3239 144.589 25.5185 144.027 26.578C143.464 27.6374 142.696 28.4694 141.715 29.0738C140.734 29.6782 139.643 29.9839 138.435 29.9839C137.427 29.9839 136.528 29.7706 135.725 29.344C134.923 28.9173 134.298 28.3201 133.832 27.5521H133.612V35.3666H131.561V16.5308H133.612V18.5004H133.832C134.291 17.7182 134.916 17.1067 135.698 16.6659C136.48 16.2321 137.386 16.0117 138.408 16.0117C139.608 16.0117 140.706 16.3104 141.687 16.9076H141.694ZM135.808 18.6C135.108 19.0408 134.552 19.6523 134.154 20.4203C133.749 21.1882 133.55 22.0415 133.55 22.98C133.55 23.9186 133.749 24.779 134.154 25.5541C134.559 26.3291 135.115 26.9406 135.821 27.3886C136.528 27.8365 137.324 28.057 138.195 28.057C139.066 28.057 139.855 27.8365 140.555 27.3886C141.255 26.9477 141.811 26.3362 142.215 25.5541C142.62 24.779 142.819 23.9186 142.819 22.98C142.819 22.0415 142.62 21.1597 142.222 20.3918C141.824 19.6239 141.276 19.0195 140.569 18.5857C139.862 18.152 139.066 17.9316 138.195 17.9316C137.324 17.9316 136.507 18.152 135.808 18.6Z" fill="black"/>
<path d="M148.267 28.8606C147.45 28.1851 147.045 27.2963 147.045 26.1799C147.045 25.0636 147.526 24.0468 148.479 23.2575C149.433 22.4753 150.819 21.9776 152.637 21.7714L156.102 21.3377V20.8257C156.102 19.9511 155.813 19.2614 155.237 18.7352C154.661 18.2161 153.858 17.953 152.836 17.953C151.882 17.953 151.121 18.1806 150.558 18.6357C149.996 19.0907 149.728 19.7165 149.742 20.52H147.663C147.663 19.1547 148.129 18.0668 149.069 17.2491C150.009 16.4385 151.272 16.0332 152.85 16.0332C154.428 16.0332 155.752 16.4741 156.705 17.3558C157.659 18.2375 158.139 19.4107 158.139 20.8826V29.465H156.088V27.5665H155.868C154.942 29.1024 153.494 29.8703 151.519 29.8703C150.167 29.8703 149.083 29.529 148.267 28.8606ZM154.043 27.6163C154.688 27.2892 155.189 26.8412 155.553 26.2582C155.916 25.6751 156.095 25.028 156.095 24.3099V23.158L152.63 23.5704C151.409 23.7268 150.517 24.0254 149.947 24.4805C149.378 24.9356 149.097 25.4831 149.097 26.1373C149.097 26.7559 149.337 27.2323 149.824 27.5878C150.311 27.9362 150.977 28.114 151.814 28.114C152.651 28.114 153.398 27.9505 154.036 27.6305L154.043 27.6163Z" fill="black"/>
<path d="M164.849 22.7258L160.396 16.5254H162.599L166.008 21.3463H166.255L169.665 16.5254H171.867L167.415 22.7258L172.114 29.4666H169.837L166.249 24.1905H166.002L162.413 29.4666H160.136L164.835 22.7258H164.849Z" fill="black"/>
<path d="M176.437 29.0809C175.421 28.4836 174.632 27.6517 174.063 26.5922C173.493 25.5327 173.212 24.331 173.212 22.98C173.212 21.629 173.493 20.4274 174.063 19.3821C174.632 18.3369 175.421 17.5049 176.437 16.9076C177.452 16.3104 178.612 16.0117 179.908 16.0117C181.205 16.0117 182.351 16.3104 183.373 16.9076C184.395 17.5049 185.191 18.3369 185.76 19.3963C186.33 20.4558 186.611 21.6504 186.611 22.9872C186.611 24.3239 186.323 25.5398 185.76 26.5993C185.191 27.6588 184.395 28.4907 183.373 29.088C182.351 29.6853 181.198 29.9839 179.908 29.9839C178.618 29.9839 177.445 29.6853 176.437 29.088V29.0809ZM182.309 27.4028C183.016 26.9691 183.572 26.3647 183.97 25.5967C184.368 24.8288 184.56 23.9542 184.56 22.98C184.56 22.0059 184.361 21.1597 183.97 20.3918C183.572 19.6239 183.023 19.0195 182.309 18.5857C181.603 18.152 180.8 17.9316 179.908 17.9316C179.016 17.9316 178.22 18.152 177.507 18.5857C176.8 19.0195 176.245 19.6239 175.847 20.3918C175.449 21.1597 175.25 22.0201 175.25 22.98C175.25 23.94 175.449 24.8288 175.847 25.5967C176.245 26.3647 176.793 26.9691 177.507 27.4028C178.214 27.8365 179.016 28.057 179.908 28.057C180.8 28.057 181.596 27.8365 182.309 27.4028Z" fill="black"/>
<path d="M189.746 16.5254H196.003C197.122 16.5254 198.048 16.8311 198.775 17.4498C199.502 18.0684 199.866 18.8363 199.866 19.7536C199.866 20.422 199.688 20.9979 199.331 21.4957C198.974 21.9934 198.521 22.3418 197.959 22.548V22.804C198.638 22.9604 199.18 23.2875 199.605 23.7924C200.024 24.2972 200.236 24.9443 200.236 25.7264C200.236 26.8214 199.852 27.7174 199.084 28.4213C198.315 29.1253 197.328 29.4737 196.106 29.4737H189.753V16.5325L189.746 16.5254ZM195.777 21.7801C196.374 21.7801 196.861 21.6165 197.245 21.2895C197.629 20.9624 197.828 20.5642 197.828 20.0878C197.828 19.6114 197.636 19.199 197.245 18.8576C196.861 18.5163 196.367 18.3457 195.777 18.3457H191.798V21.7801H195.777ZM195.75 27.6463C196.456 27.6463 197.039 27.4472 197.492 27.0419C197.945 26.6437 198.171 26.1531 198.171 25.57C198.171 24.9869 197.945 24.539 197.492 24.1763C197.039 23.8137 196.456 23.6217 195.75 23.6217H191.791V27.6463H195.75Z" fill="black"/>
<path d="M203.612 28.8606C202.796 28.1851 202.391 27.2963 202.391 26.1799C202.391 25.0636 202.871 24.0468 203.825 23.2575C204.778 22.4753 206.164 21.9776 207.975 21.7714L211.44 21.3377V20.8257C211.44 19.9511 211.152 19.2614 210.576 18.7352C209.999 18.2161 209.197 17.953 208.174 17.953C207.221 17.953 206.459 18.1806 205.897 18.6357C205.334 19.0907 205.066 19.7165 205.08 20.52H203.001C203.001 19.1547 203.468 18.0668 204.408 17.2491C205.348 16.4385 206.61 16.0332 208.188 16.0332C209.766 16.0332 211.09 16.4741 212.044 17.3558C212.997 18.2375 213.478 19.4107 213.478 20.8826V29.465H211.426V27.5665H211.207C210.281 29.1024 208.833 29.8703 206.857 29.8703C205.506 29.8703 204.422 29.529 203.605 28.8606H203.612ZM209.389 27.6163C210.034 27.2892 210.534 26.8412 210.898 26.2582C211.262 25.6751 211.44 25.028 211.44 24.3099V23.158L207.975 23.5704C206.754 23.7268 205.862 24.0254 205.293 24.4805C204.723 24.9356 204.442 25.4831 204.442 26.1373C204.442 26.7559 204.682 27.2323 205.169 27.5878C205.656 27.9362 206.322 28.114 207.159 28.114C207.996 28.114 208.744 27.9505 209.382 27.6305L209.389 27.6163Z" fill="black"/>
<path d="M217.052 16.5254H219.103V21.9578H226.396V16.5254H228.448V29.4666H226.396V23.8777H219.103V29.4666H217.052V16.5254Z" fill="black"/>
<path d="M232.235 16.5254H234.286V26.4446H234.506L241.161 16.5254H243.658V29.4666H241.606V19.5758H241.359L234.732 29.4666H232.235V16.5254Z" fill="black"/>
<path d="M250.073 29.0524C249.043 28.4409 248.241 27.5877 247.664 26.4998C247.088 25.4118 246.8 24.1888 246.8 22.8236C246.8 21.4584 247.081 20.3563 247.651 19.3252C248.22 18.2942 249.009 17.4836 250.011 16.8934C251.013 16.3033 252.151 16.0117 253.421 16.0117C254.69 16.0117 255.801 16.3104 256.796 16.8934C257.791 17.4836 258.573 18.3013 259.142 19.3394C259.712 20.3847 259.993 21.5508 259.993 22.8521C259.993 23.2289 259.986 23.5062 259.966 23.6982H248.913C249.064 25.0137 249.558 26.066 250.409 26.8624C251.259 27.6588 252.309 28.057 253.565 28.057C254.505 28.057 255.355 27.8294 256.124 27.3744C256.892 26.9193 257.462 26.3078 257.839 25.5398L259.547 26.4358C259.053 27.545 258.271 28.4125 257.208 29.0382C256.144 29.6639 254.923 29.9768 253.537 29.9768C252.254 29.9768 251.095 29.6711 250.066 29.0524H250.073ZM257.825 21.8281C257.647 20.6691 257.146 19.7234 256.33 19.0124C255.513 18.2942 254.518 17.9387 253.352 17.9387C252.186 17.9387 251.218 18.2942 250.422 19.0053C249.627 19.7163 249.133 20.662 248.954 21.8352H257.832L257.825 21.8281Z" fill="black"/>
</g>
<defs>
<clipPath id="clip0_577_4464">
<rect width="260" height="44" fill="white"/>
</clipPath>
</defs>
</svg>
